inDegrees=yes
name=lift_l_res.mot
DataType=double
version=3
OpenSimVersion=4.4-2022-07-23-0e9fedc
endheader
time	pelvis_tilt	pelvis_list	pelvis_rotation	pelvis_tx	pelvis_ty	pelvis_tz	hip_flexion_r	hip_adduction_r	hip_rotation_r	knee_angle_r	knee_angle_r_beta	ankle_angle_r	subtalar_angle_r	mtp_angle_r	hip_flexion_l	hip_adduction_l	hip_rotation_l	knee_angle_l	knee_angle_l_beta	ankle_angle_l	subtalar_angle_l	mtp_angle_l	lumbar_extension	lumbar_bending	lumbar_rotation	arm_flex_r	arm_add_r	arm_rot_r	elbow_flex_r	pro_sup_r	wrist_flex_r	wrist_dev_r	arm_flex_l	arm_add_l	arm_rot_l	elbow_flex_l	pro_sup_l	wrist_flex_l	wrist_dev_l
0	-0.003440313287441282	-0.01129036157872146	90.00194230820911	0	0.9399999999999999	0	1.322349747667657	-0.6959647810088677	0	6.169293280408037	0.107674480264282	-0.4314466024919882	0	0	1.322349747667657	-0.6959647810088677	0	6.169293280408037	0.107674480264282	-0.4314466024919882	0	0	0.01347742538666329	-0.007875321682493351	-0.004785284227400998	0	-0.1522363322685295	0	8.506370365241631	8.321057409766839	0	0	0.3008697411098327	-5.769556609196536	-0.5834108080283127	0.1392488711590553	8.321057409766839	0	0
1	-0.00523567213252003	-0.0014351905730743	89.99655644783036	0	0.9399999999999999	0	43.2913855051044	-10.6240256624794	0	60.03392763491902	1.047789700133349	-5.170467485614064	0	0	43.2913855051044	-10.6240256624794	0	60.03392763491902	1.047789700133349	-5.170467485614064	0	0	0.004735543105355987	-0.001374805213671395	0.004330638416803012	0	-12.97415990151732	0	76.95506547882805	44.85681616709716	0	0	0.2985761957252153	-5.762093259816833	-0.5773005133857244	0.1400631524281876	44.85681616709716	0	0
2	-0.0002303844064212494	-0.003863714418497167	89.9984834320671	0	0.9399999999999999	0	43.2916305060731	-10.62371188559471	0	60.03392384703277	1.047789634022263	-5.170355622586455	0	0	43.2916305060731	-10.62371188559471	0	60.03392384703277	1.047789634022263	-5.170355622586455	0	0	0.009706973388093331	-0.00224747370334621	-0.001005404430633058	0	-12.97430823223096	0	76.95478512055395	44.85687306811035	0	0	0.288976282136676	-5.769997371144957	-0.5813939516062931	0.1413049033841181	44.85687306811035	0	0
3	-0.0009138468144157183	-0.003572624439457465	89.99875983941672	0	0.9399999999999999	0	43.29186385411607	-10.62341311788044	0	60.03392023951266	1.047789571059159	-5.170249126028593	0	0	43.29186385411607	-10.62341311788044	0	60.03392023951266	1.047789571059159	-5.170249126028593	0	0	0.01163277531057	-0.002460807806683339	-0.002623398212698858	0	-12.9744495090688	0	76.95451809690806	44.85692725257743	0	0	0.2845245672133966	-5.770972825646428	-0.5827707400316241	0.1416434787324349	44.85692725257743	0	0
4	-0.0007884339528514168	-0.006689871712443785	89.99983036193782	0	0.9399999999999999	0	43.29213846133477	-10.6230615120962	0	60.03391599512783	1.047789496980669	-5.170123803038129	0	0	43.29213846133477	-10.6230615120962	0	60.03391599512783	1.047789496980669	-5.170123803038129	0	0	0.0119207099391086	-0.003237591004274181	-0.003233970503352744	0	-12.97461574550588	0	76.95420385976456	44.85699102152494	0	0	0.2928311169265831	-5.768744862629057	-0.5817763510655272	0.1408774784595243	44.85699102152494	0	0
5	-0.0006302854057067292	-0.005912390452743336	89.99940768876274	0	0.9399999999999999	0	43.292403973531	-10.62272171623012	0	60.03391189095029	1.047789425349257	-5.170002712562197	0	0	43.292403973531	-10.62272171623012	0	60.03391189095029	1.047789425349257	-5.170002712562197	0	0	0.01122749975228262	-0.003101905052433321	-0.003364489270952709	0	-12.9747764950309	0	76.95390003021998	44.85705265687375	0	0	0.2920125204469656	-5.768904325611154	-0.58166096124663	0.1410624495392296	44.85705265687375	0	0
6	0.005179619063736159	0.0004526833311851936	90.00351479001961	0	0.9399999999999999	0	43.29286584581521	-10.62213247894155	0	60.03390473357497	1.047789300429492	-5.169792861555524	0	0	43.29286584581521	-10.62213247894155	0	60.03390473357497	1.047789300429492	-5.169792861555524	0	0	0.0004364557610276313	-0.002501755009496664	-0.003400064213402224	0	-12.97505664361823	0	76.95337150337852	44.85715959807823	0	0	0.9211917961575342	-4.421048936119328	-0.9974602769630431	0.06918995933447514	44.85715959807823	0	0
7	0.008199673994668517	0.003928883975722393	90.00531925802412	0	0.9399999999999999	0	43.29334927181828	-10.62151602435578	0	60.03389724326383	1.047789169698901	-5.169573372775984	0	0	43.29334927181828	-10.62151602435578	0	60.03389724326383	1.047789169698901	-5.169573372775984	0	0	-0.004740550461848445	0.01362084268469462	-0.00349170825876105	0	-12.97534986306277	0	76.95281831235465	44.85727149722816	0	0	1.371171311153338	-2.661179966969398	-1.54000825253534	0.04147499826143704	44.85727149722816	0	0
8	-0.001336102035731724	-0.001767780552317722	89.99806286576805	0	0.9399999999999999	0	43.29385991395569	-10.62086515670264	0	60.03388933276411	1.047789031634635	-5.169341692792991	0	0	43.29385991395569	-10.62086515670264	0	60.03388933276411	1.047789031634635	-5.169341692792991	0	0	0.003600930154493538	-0.007544512824344843	0.006463876320444217	0	-12.97565957984231	0	76.95223397756895	44.85738966306573	0	0	2.840223873233121	-1.031736420586575	-3.172911757075253	0.02867844957671632	44.85738966306573	0	0
9	0.003326920771379015	0.003538949687421234	90.0015230492243	0	0.9399999999999999	0	43.34356886596695	-10.56632935209425	0	60.03309830908996	1.04777522566706	-5.150928311535046	0	0	43.34356886596695	-10.56632935209425	0	60.03309830908996	1.04777522566706	-5.150928311535046	0	0	-0.008789302356969992	0.008146575571909861	-0.004595025579926157	0	-13.00704315191182	0	76.8953531703627	44.86768783705426	0	0	4.013418747196045	0.6593549987125922	-4.519399325551587	0.01891606884584533	44.86768783705426	0	0
10	-0.0001642870634359945	0.01250192595412304	89.99653400805857	0	0.9399999999999999	0	43.34870221841744	-10.56193306383512	0	60.03299867714287	1.047773486761543	-5.149508289799427	0	0	43.34870221841744	-10.56193306383512	0	60.03299867714287	1.047773486761543	-5.149508289799427	0	0	-0.006712984004622596	0.005064070597013678	-0.002437064012125173	0	-13.01074632266702	0	76.88947951791089	44.86855437666147	0	0	6.5464880415959	3.255341876531102	-6.752215920096629	0.01244174013442508	44.86855437666147	0	0
11	-0.006138115791579989	-0.002262851902338907	90.00280932272999	0	0.9399999999999999	0	43.39723339624703	-10.51371328186852	0	60.03221545588287	1.047759816971785	-5.133791017483005	0	0	43.39723339624703	-10.51371328186852	0	60.03221545588287	1.047759816971785	-5.133791017483005	0	0	-0.001186988351218066	-0.0009577306228084308	-0.002478073696605233	0	-13.04212254808584	0	76.83394740342133	44.87790321460493	0	0	8.842688381587976	4.478105983581423	-9.279575984369886	0.009574861475090337	44.87790321460493	0	0
12	-0.0003901926928677389	-0.0002861467561817842	90.0007518256663	0	0.9399999999999999	0	43.40187045568459	-10.50996185158549	0	60.03212522011309	1.047758242060499	-5.132604225695849	0	0	43.40187045568459	-10.50996185158549	0	60.03212522011309	1.047758242060499	-5.132604225695849	0	0	-0.3035498686098139	-0.8138434162445461	0.6841778655392186	0	-13.04551000168766	0	76.82864165339006	44.87865413237554	0	0	12.40610291911789	4.917493144499725	-10.9215802243599	0.007498161093693258	44.87865413237554	0	0
